<mxfile host="app.diagrams.net" agent="Mozilla/5.0 (Macintosh; Intel Mac OS X 10_15_7) AppleWebKit/537.36 (KHTML, like Gecko) Chrome/135.0.0.0 Safari/537.36" version="27.0.9">
  <diagram name="Sayfa -1" id="aX_vatNobtkSRpizzWom">
    <mxGraphModel dx="996" dy="596" grid="1" gridSize="10" guides="1" tooltips="1" connect="1" arrows="1" fold="1" page="1" pageScale="1" pageWidth="827" pageHeight="1169" math="0" shadow="0">
      <root>
        <mxCell id="0" />
        <mxCell id="1" parent="0" />
        <mxCell id="tZkG3G24qy1BWKVBvsf_-1" value="User" style="swimlane;whiteSpace=wrap;html=1;" vertex="1" parent="1">
          <mxGeometry x="170" y="80" width="244" height="200" as="geometry" />
        </mxCell>
        <mxCell id="tZkG3G24qy1BWKVBvsf_-3" value="+userID: String&lt;div&gt;+name: String&lt;/div&gt;&lt;div&gt;+email: String&lt;/div&gt;&lt;div&gt;-------------------------------------------------------&lt;/div&gt;" style="text;html=1;align=left;verticalAlign=middle;resizable=0;points=[];autosize=1;strokeColor=none;fillColor=none;" vertex="1" parent="tZkG3G24qy1BWKVBvsf_-1">
          <mxGeometry x="4" y="28" width="240" height="70" as="geometry" />
        </mxCell>
        <mxCell id="tZkG3G24qy1BWKVBvsf_-5" style="edgeStyle=orthogonalEdgeStyle;rounded=0;orthogonalLoop=1;jettySize=auto;html=1;dashed=1;strokeColor=none;endArrow=none;startFill=0;dashPattern=12 12;" edge="1" parent="tZkG3G24qy1BWKVBvsf_-1" source="tZkG3G24qy1BWKVBvsf_-4">
          <mxGeometry relative="1" as="geometry">
            <mxPoint x="380" y="140" as="targetPoint" />
          </mxGeometry>
        </mxCell>
        <mxCell id="tZkG3G24qy1BWKVBvsf_-7" style="edgeStyle=orthogonalEdgeStyle;rounded=1;orthogonalLoop=1;jettySize=auto;html=1;curved=0;dashed=1;dashPattern=12 12;endArrow=none;startFill=0;" edge="1" parent="tZkG3G24qy1BWKVBvsf_-1" source="tZkG3G24qy1BWKVBvsf_-4">
          <mxGeometry relative="1" as="geometry">
            <mxPoint x="380" y="140" as="targetPoint" />
          </mxGeometry>
        </mxCell>
        <mxCell id="tZkG3G24qy1BWKVBvsf_-4" value="+selectLearningStylr(style: String) : void&lt;div&gt;+selectExerciseLevel(level: String): void&lt;/div&gt;&lt;div&gt;+viewContent(): void&lt;/div&gt;&lt;div&gt;+takeQuiz(): void&lt;/div&gt;&lt;div&gt;+trackPerformance(): void&lt;/div&gt;&lt;div style=&quot;&quot;&gt;+receiveNotifications(): void&lt;/div&gt;" style="text;html=1;align=left;verticalAlign=middle;resizable=0;points=[];autosize=1;strokeColor=none;fillColor=none;" vertex="1" parent="tZkG3G24qy1BWKVBvsf_-1">
          <mxGeometry y="90" width="240" height="100" as="geometry" />
        </mxCell>
        <mxCell id="tZkG3G24qy1BWKVBvsf_-8" value="creates" style="text;html=1;align=center;verticalAlign=middle;resizable=0;points=[];autosize=1;strokeColor=none;fillColor=none;" vertex="1" parent="1">
          <mxGeometry x="450" y="188" width="60" height="30" as="geometry" />
        </mxCell>
        <mxCell id="tZkG3G24qy1BWKVBvsf_-38" style="edgeStyle=orthogonalEdgeStyle;rounded=0;orthogonalLoop=1;jettySize=auto;html=1;" edge="1" parent="1" source="tZkG3G24qy1BWKVBvsf_-9">
          <mxGeometry relative="1" as="geometry">
            <mxPoint x="890" y="220" as="targetPoint" />
          </mxGeometry>
        </mxCell>
        <mxCell id="tZkG3G24qy1BWKVBvsf_-9" value="Teacher" style="swimlane;whiteSpace=wrap;html=1;" vertex="1" parent="1">
          <mxGeometry x="550" y="120" width="244" height="200" as="geometry" />
        </mxCell>
        <mxCell id="tZkG3G24qy1BWKVBvsf_-10" value="+teacherID: String&lt;div&gt;+name: String&lt;/div&gt;&lt;div&gt;+email: String&lt;/div&gt;&lt;div&gt;&lt;br&gt;&lt;/div&gt;&lt;div&gt;-------------------------------------------------------&lt;/div&gt;" style="text;html=1;align=left;verticalAlign=middle;resizable=0;points=[];autosize=1;strokeColor=none;fillColor=none;" vertex="1" parent="tZkG3G24qy1BWKVBvsf_-9">
          <mxGeometry x="4" y="18" width="240" height="90" as="geometry" />
        </mxCell>
        <mxCell id="tZkG3G24qy1BWKVBvsf_-11" style="edgeStyle=orthogonalEdgeStyle;rounded=0;orthogonalLoop=1;jettySize=auto;html=1;dashed=1;strokeColor=none;endArrow=none;startFill=0;dashPattern=12 12;" edge="1" parent="tZkG3G24qy1BWKVBvsf_-9" source="tZkG3G24qy1BWKVBvsf_-13">
          <mxGeometry relative="1" as="geometry">
            <mxPoint x="380" y="140" as="targetPoint" />
          </mxGeometry>
        </mxCell>
        <mxCell id="tZkG3G24qy1BWKVBvsf_-13" value="+createCourse(course: Course) : void&lt;div&gt;+viewFeedback(): void&lt;/div&gt;&lt;div&gt;+takeQuiz(): void&lt;/div&gt;&lt;div&gt;+analyzePerformance(): void&lt;/div&gt;&lt;div style=&quot;&quot;&gt;&lt;br&gt;&lt;/div&gt;" style="text;html=1;align=left;verticalAlign=middle;resizable=0;points=[];autosize=1;strokeColor=none;fillColor=none;" vertex="1" parent="tZkG3G24qy1BWKVBvsf_-9">
          <mxGeometry y="99" width="220" height="90" as="geometry" />
        </mxCell>
        <mxCell id="tZkG3G24qy1BWKVBvsf_-32" style="edgeStyle=orthogonalEdgeStyle;rounded=0;orthogonalLoop=1;jettySize=auto;html=1;" edge="1" parent="1" source="tZkG3G24qy1BWKVBvsf_-14">
          <mxGeometry relative="1" as="geometry">
            <mxPoint x="675" y="330" as="targetPoint" />
          </mxGeometry>
        </mxCell>
        <mxCell id="tZkG3G24qy1BWKVBvsf_-33" style="edgeStyle=orthogonalEdgeStyle;rounded=0;orthogonalLoop=1;jettySize=auto;html=1;" edge="1" parent="1" source="tZkG3G24qy1BWKVBvsf_-14">
          <mxGeometry relative="1" as="geometry">
            <mxPoint x="420" y="290" as="targetPoint" />
          </mxGeometry>
        </mxCell>
        <mxCell id="tZkG3G24qy1BWKVBvsf_-14" value="AI Engine" style="swimlane;whiteSpace=wrap;html=1;" vertex="1" parent="1">
          <mxGeometry x="523" y="385" width="304" height="200" as="geometry" />
        </mxCell>
        <mxCell id="tZkG3G24qy1BWKVBvsf_-15" value="&lt;br&gt;&lt;div&gt;&lt;br&gt;&lt;/div&gt;&lt;div&gt;-------------------------------------------------------&lt;/div&gt;" style="text;html=1;align=left;verticalAlign=middle;resizable=0;points=[];autosize=1;strokeColor=none;fillColor=none;" vertex="1" parent="tZkG3G24qy1BWKVBvsf_-14">
          <mxGeometry x="4" y="33" width="240" height="60" as="geometry" />
        </mxCell>
        <mxCell id="tZkG3G24qy1BWKVBvsf_-16" style="edgeStyle=orthogonalEdgeStyle;rounded=0;orthogonalLoop=1;jettySize=auto;html=1;dashed=1;strokeColor=none;endArrow=none;startFill=0;dashPattern=12 12;" edge="1" parent="tZkG3G24qy1BWKVBvsf_-14" source="tZkG3G24qy1BWKVBvsf_-18">
          <mxGeometry relative="1" as="geometry">
            <mxPoint x="380" y="140" as="targetPoint" />
          </mxGeometry>
        </mxCell>
        <mxCell id="tZkG3G24qy1BWKVBvsf_-18" value="+recommendContent(user: User):Content&lt;div&gt;+generateFeedback(user: User):&amp;nbsp;&lt;span style=&quot;background-color: transparent; color: light-dark(rgb(0, 0, 0), rgb(255, 255, 255));&quot;&gt;Feedback&lt;/span&gt;&lt;span style=&quot;background-color: transparent; color: light-dark(rgb(0, 0, 0), rgb(255, 255, 255));&quot;&gt;&amp;nbsp;&lt;/span&gt;&lt;/div&gt;&lt;div&gt;+adaptContentToLearningStyle(user: User): Content&lt;/div&gt;&lt;div&gt;+sendNotifications(user: User): void&amp;nbsp;&lt;/div&gt;&lt;div style=&quot;&quot;&gt;&lt;br&gt;&lt;/div&gt;" style="text;html=1;align=left;verticalAlign=middle;resizable=0;points=[];autosize=1;strokeColor=none;fillColor=none;" vertex="1" parent="tZkG3G24qy1BWKVBvsf_-14">
          <mxGeometry x="4" y="99" width="300" height="90" as="geometry" />
        </mxCell>
        <mxCell id="tZkG3G24qy1BWKVBvsf_-31" style="edgeStyle=orthogonalEdgeStyle;rounded=0;orthogonalLoop=1;jettySize=auto;html=1;" edge="1" parent="1" source="tZkG3G24qy1BWKVBvsf_-19">
          <mxGeometry relative="1" as="geometry">
            <mxPoint x="290" y="300" as="targetPoint" />
          </mxGeometry>
        </mxCell>
        <mxCell id="tZkG3G24qy1BWKVBvsf_-19" value="Content" style="swimlane;fontStyle=0;childLayout=stackLayout;horizontal=1;startSize=26;fillColor=none;horizontalStack=0;resizeParent=1;resizeParentMax=0;resizeLast=0;collapsible=1;marginBottom=0;whiteSpace=wrap;html=1;" vertex="1" parent="1">
          <mxGeometry x="145" y="410" width="250" height="120" as="geometry" />
        </mxCell>
        <mxCell id="tZkG3G24qy1BWKVBvsf_-20" value="+feedbackID: String&lt;div&gt;&lt;br&gt;&lt;/div&gt;" style="text;strokeColor=none;fillColor=none;align=left;verticalAlign=top;spacingLeft=4;spacingRight=4;overflow=hidden;rotatable=0;points=[[0,0.5],[1,0.5]];portConstraint=eastwest;whiteSpace=wrap;html=1;" vertex="1" parent="tZkG3G24qy1BWKVBvsf_-19">
          <mxGeometry y="26" width="250" height="26" as="geometry" />
        </mxCell>
        <mxCell id="tZkG3G24qy1BWKVBvsf_-21" value="+title: String&lt;div&gt;+difficulty: String&lt;/div&gt;&lt;div&gt;+data: String&lt;/div&gt;" style="text;strokeColor=none;fillColor=none;align=left;verticalAlign=top;spacingLeft=4;spacingRight=4;overflow=hidden;rotatable=0;points=[[0,0.5],[1,0.5]];portConstraint=eastwest;whiteSpace=wrap;html=1;" vertex="1" parent="tZkG3G24qy1BWKVBvsf_-19">
          <mxGeometry y="52" width="250" height="68" as="geometry" />
        </mxCell>
        <mxCell id="tZkG3G24qy1BWKVBvsf_-23" value="Course" style="swimlane;fontStyle=0;childLayout=stackLayout;horizontal=1;startSize=26;fillColor=none;horizontalStack=0;resizeParent=1;resizeParentMax=0;resizeLast=0;collapsible=1;marginBottom=0;whiteSpace=wrap;html=1;" vertex="1" parent="1">
          <mxGeometry x="900" y="120" width="180" height="150" as="geometry" />
        </mxCell>
        <mxCell id="tZkG3G24qy1BWKVBvsf_-24" value="+courseID: String" style="text;strokeColor=none;fillColor=none;align=left;verticalAlign=top;spacingLeft=4;spacingRight=4;overflow=hidden;rotatable=0;points=[[0,0.5],[1,0.5]];portConstraint=eastwest;whiteSpace=wrap;html=1;" vertex="1" parent="tZkG3G24qy1BWKVBvsf_-23">
          <mxGeometry y="26" width="180" height="26" as="geometry" />
        </mxCell>
        <mxCell id="tZkG3G24qy1BWKVBvsf_-25" value="+title: String" style="text;strokeColor=none;fillColor=none;align=left;verticalAlign=top;spacingLeft=4;spacingRight=4;overflow=hidden;rotatable=0;points=[[0,0.5],[1,0.5]];portConstraint=eastwest;whiteSpace=wrap;html=1;" vertex="1" parent="tZkG3G24qy1BWKVBvsf_-23">
          <mxGeometry y="52" width="180" height="26" as="geometry" />
        </mxCell>
        <mxCell id="tZkG3G24qy1BWKVBvsf_-26" value="+contentList: List&amp;lt;Content&amp;gt;" style="text;strokeColor=none;fillColor=none;align=left;verticalAlign=top;spacingLeft=4;spacingRight=4;overflow=hidden;rotatable=0;points=[[0,0.5],[1,0.5]];portConstraint=eastwest;whiteSpace=wrap;html=1;" vertex="1" parent="tZkG3G24qy1BWKVBvsf_-23">
          <mxGeometry y="78" width="180" height="72" as="geometry" />
        </mxCell>
        <mxCell id="tZkG3G24qy1BWKVBvsf_-27" value="Feedback" style="swimlane;fontStyle=0;childLayout=stackLayout;horizontal=1;startSize=26;fillColor=none;horizontalStack=0;resizeParent=1;resizeParentMax=0;resizeLast=0;collapsible=1;marginBottom=0;whiteSpace=wrap;html=1;" vertex="1" parent="1">
          <mxGeometry x="920" y="340" width="140" height="52" as="geometry" />
        </mxCell>
        <mxCell id="tZkG3G24qy1BWKVBvsf_-28" value="+feedbackID:String" style="text;strokeColor=none;fillColor=none;align=left;verticalAlign=top;spacingLeft=4;spacingRight=4;overflow=hidden;rotatable=0;points=[[0,0.5],[1,0.5]];portConstraint=eastwest;whiteSpace=wrap;html=1;" vertex="1" parent="tZkG3G24qy1BWKVBvsf_-27">
          <mxGeometry y="26" width="140" height="26" as="geometry" />
        </mxCell>
        <mxCell id="tZkG3G24qy1BWKVBvsf_-35" value="Content" style="swimlane;fontStyle=0;childLayout=stackLayout;horizontal=1;startSize=26;fillColor=none;horizontalStack=0;resizeParent=1;resizeParentMax=0;resizeLast=0;collapsible=1;marginBottom=0;whiteSpace=wrap;html=1;" vertex="1" parent="1">
          <mxGeometry x="1150" y="250" width="190" height="120" as="geometry" />
        </mxCell>
        <mxCell id="tZkG3G24qy1BWKVBvsf_-36" value="+feedbackID: String&lt;div&gt;&lt;br&gt;&lt;/div&gt;" style="text;strokeColor=none;fillColor=none;align=left;verticalAlign=top;spacingLeft=4;spacingRight=4;overflow=hidden;rotatable=0;points=[[0,0.5],[1,0.5]];portConstraint=eastwest;whiteSpace=wrap;html=1;" vertex="1" parent="tZkG3G24qy1BWKVBvsf_-35">
          <mxGeometry y="26" width="190" height="26" as="geometry" />
        </mxCell>
        <mxCell id="tZkG3G24qy1BWKVBvsf_-37" value="+title: String&lt;div&gt;+difficulty: String&lt;/div&gt;&lt;div&gt;+data: String&lt;/div&gt;" style="text;strokeColor=none;fillColor=none;align=left;verticalAlign=top;spacingLeft=4;spacingRight=4;overflow=hidden;rotatable=0;points=[[0,0.5],[1,0.5]];portConstraint=eastwest;whiteSpace=wrap;html=1;" vertex="1" parent="tZkG3G24qy1BWKVBvsf_-35">
          <mxGeometry y="52" width="190" height="68" as="geometry" />
        </mxCell>
        <mxCell id="tZkG3G24qy1BWKVBvsf_-39" value="generates" style="text;html=1;align=center;verticalAlign=middle;resizable=0;points=[];autosize=1;strokeColor=none;fillColor=none;" vertex="1" parent="1">
          <mxGeometry x="800" y="188" width="80" height="30" as="geometry" />
        </mxCell>
        <mxCell id="tZkG3G24qy1BWKVBvsf_-40" style="edgeStyle=orthogonalEdgeStyle;rounded=0;orthogonalLoop=1;jettySize=auto;html=1;entryX=0;entryY=0.25;entryDx=0;entryDy=0;" edge="1" parent="1" source="tZkG3G24qy1BWKVBvsf_-26" target="tZkG3G24qy1BWKVBvsf_-27">
          <mxGeometry relative="1" as="geometry" />
        </mxCell>
        <mxCell id="tZkG3G24qy1BWKVBvsf_-41" value="recommends" style="text;html=1;align=center;verticalAlign=middle;resizable=0;points=[];autosize=1;strokeColor=none;fillColor=none;" vertex="1" parent="1">
          <mxGeometry x="845" y="288" width="90" height="30" as="geometry" />
        </mxCell>
        <mxCell id="tZkG3G24qy1BWKVBvsf_-42" style="edgeStyle=orthogonalEdgeStyle;rounded=0;orthogonalLoop=1;jettySize=auto;html=1;entryX=0;entryY=0.5;entryDx=0;entryDy=0;" edge="1" parent="1" source="tZkG3G24qy1BWKVBvsf_-26" target="tZkG3G24qy1BWKVBvsf_-37">
          <mxGeometry relative="1" as="geometry" />
        </mxCell>
        <mxCell id="tZkG3G24qy1BWKVBvsf_-43" value="recommends" style="text;html=1;align=center;verticalAlign=middle;resizable=0;points=[];autosize=1;strokeColor=none;fillColor=none;" vertex="1" parent="1">
          <mxGeometry x="1055" y="278" width="90" height="30" as="geometry" />
        </mxCell>
      </root>
    </mxGraphModel>
  </diagram>
</mxfile>
